#!OML:ASF E:/inclinewalkrobotboard/Project1/Captureday1/Session1/subject1.ASF
:FULLY-SPECIFIED
:DEGREES
63
root 0 0 0 1.3135576270388332 -3.8556800783263636 1.8329041801152028
lowerback 12.16908342361007 0.8579160655650591 -0.06018319407989736
upperback -4.385630989508423 1.0952569572811441 -0.568252990166693
thorax -11.618215775293594 0.4976812704135146 -0.8200296441650927
lowerneck -6.009056507135648 1.593638719546724 4.463403871277267
upperneck 18.387288137225237 3.098818334850934 -8.197082905093636
head 6.743088123051804 1.1341922219401122 -3.1431740541877113
rclavicle 1.9193116754848388E-15 -3.9716815376335255E-16
rhumerus 21.252422286257868 15.771211711110825 -47.638532984890574
rradius 73.64584152401885
rwrist 26.822310634772712
rhand -34.659941037293095 -57.66223463407333
rfingers 7.125020000000014
rthumb -7.800575073406534 -87.60621596821903
lclavicle -4.432680914134534E-16 -1.018454256172384E-15
lhumerus 22.126311094135566 -12.527905402313566 43.863700861934674
lradius 71.11882422503308
lwrist -23.56089972088254
lhand -44.62183144682565 -71.13563770835664
lfingers 7.125020000000031
lthumb -17.401333052510857 -41.838633348261325
rfemur -25.232237703972814 -2.2172737208197866 17.201925336439675
rtibia 54.194034119847366
rfoot -29.696199503932363 -16.768603804277483
rtoes -18.429814865672824
lfemur -26.49506441497471 2.2920872295975356 -17.631480388772847
ltibia 53.330843066396085
lfoot -32.59893021717879 -2.6132050725033915
ltoes -21.006441001678894
64
root 0 0 0 1.3139270460481742 -3.8539223619353047 1.8326446940643248
lowerback 12.169266723481527 0.8577022580614542 -0.059843538638926774
upperback -4.386093609808135 1.0950370886020502 -0.5683865183955857
thorax -11.618863964937763 0.49754038994185906 -0.8203306065042988
lowerneck -6.010280460792323 1.594166882901794 4.463813903507563
upperneck 18.38851268955621 3.0994206370576896 -8.197274235741023
head 6.743642338913044 1.1344653556501663 -3.143227147171812
rclavicle 1.932270254302879E-15 -4.034419530036322E-16
rhumerus 21.253286971664295 15.771815874072425 -47.637651443330604
rradius 73.64700560775809
rwrist 26.822809552783976
rhand -34.66050740838953 -57.6637079535079
rfingers 7.125020000000014
rthumb -7.801405124068115 -87.60790074284384
lclavicle -4.361311234714165E-16 -1.019441956897255E-15
lhumerus 22.12428032109687 -12.529112643749746 43.864152208378286
lradius 71.11753539094326
lwrist -23.560646242898244
lhand -44.62162608353479 -71.13286852821497
lfingers 7.125020000000031
lthumb -17.40113816759182 -41.83486689654468
rfemur -25.231402795318896 -2.218158611890077 17.200852272476983
rtibia 54.19632794596797
rfoot -29.699148909463403 -16.76736271437042
rtoes -18.432345082560516
lfemur -26.48884658856872 2.2909714608671545 -17.627726684270062
ltibia 53.33021288003671
lfoot -32.60013984351005 -2.613049754850441
ltoes -21.01705740820674
65
root 0 0 0 1.3138917819587284 -3.8536565804278906 1.8326507983448943
lowerback 12.169265792332528 0.8576626632358826 -0.05989230874730489
upperback -4.386159150757526 1.0949758540418366 -0.568398533388308
thorax -11.618941191338372 0.4975099681851867 -0.820303019479601
lowerneck -6.010460770582581 1.59426026437336 4.463853911366232
upperneck 18.388731766417898 3.0995360307955355 -8.197306272169891
head 6.743737525551425 1.134512631355543 -3.143229312972651
rclavicle 1.9322564532972416E-15 -4.03257890174007E-16
rhumerus 21.25316296823585 15.771665822879916 -47.63770400599082
rradius 73.6469279666343
rwrist 26.82277789064326
rhand -34.660624363178634 -57.66374873668051
rfingers 7.125020000000014
rthumb -7.801512279266538 -87.60790534007921
lclavicle -4.376499848952016E-16 -1.0202137618222247E-15
lhumerus 22.124558763878802 -12.52930610870891 43.86399149047121
lradius 71.11786449681938
lwrist -23.560724697619776
lhand -44.62163209558053 -71.13319159661765
lfingers 7.125020000000031
lthumb -17.401137997451496 -41.83516006740433
rfemur -25.231218652604078 -2.218091006386758 17.20090776290243
rtibia 54.19623391883142
rfoot -29.698912680873995 -16.76723686115622
rtoes -18.432989685505714
lfemur -26.48881454669843 2.290805753023103 -17.627583021522177
ltibia 53.32992400382572
lfoot -32.60035871014826 -2.6134591554619617
ltoes -21.018480753804376
66
root 0 0 0 1.3138410900573785 -3.8534461783776734 1.8326083633670196
lowerback 12.169247405155721 0.8576417018217108 -0.059878737162196494
upperback -4.386188908422453 1.094950381040997 -0.5683941062269445
thorax -11.618966770722636 0.49749640433294584 -0.8203045099700894
lowerneck -6.0105210907022615 1.5942985172482225 4.463896094180437
upperneck 18.388836779875913 3.0995828948148016 -8.197339973389372
head 6.743778691891006 1.1345312800012408 -3.1432428510365034
rclavicle 1.932108774890572E-15 -4.0313730559712074E-16
rhumerus 21.253184163945107 15.771630101485878 -47.6376183662055
rradius 73.64696298279449
rwrist 26.82282908888844
rhand -34.66074551905079 -57.66393130645553
rfingers 7.125020000000014
rthumb -7.801629118903778 -87.60809073848449
lclavicle -4.372693288112405E-16 -1.019568013608853E-15
lhumerus 22.12460878950693 -12.529350329425522 43.863988499267705
lradius 71.11791740300617
lwrist -23.56070340017792
lhand -44.62165482120372 -71.13327712076585
lfingers 7.125020000000031
lthumb -17.401164018565474 -41.835265882731605
rfemur -25.23113804614602 -2.2180211207661094 17.200910180532507
rtibia 54.19603513036124
rfoot -29.698928559403882 -16.76724680493648
rtoes -18.43308030987473
lfemur -26.48841438061621 2.2908344105425433 -17.62732512973354
ltibia 53.33002988617316
lfoot -32.599711616228134 -2.6140406561727545
ltoes -21.019928463277267
